HIERARCHY
ROOT root
{
	OFFSET	0	13.1	24.9
	CHANNELS 6  Xposition Yposition Zposition Xrotation Yrotation Zrotation
	JOINT spine_1
	{
		OFFSET	0	9.99999	0
		CHANNELS 3  Xrotation Yrotation Zrotation
		JOINT spine_2
		{
			OFFSET	0	112	-10
			CHANNELS 3  Xrotation Yrotation Zrotation
			JOINT spine_3
			{
				OFFSET	0	206.5	19.3
				CHANNELS 3  Xrotation Yrotation Zrotation
				JOINT spine_4
				{
					OFFSET	0	110.4	14.6
					CHANNELS 3  Xrotation Yrotation Zrotation
					JOINT neck_1
					{
						OFFSET	0	71.8	-50.3
						CHANNELS 3  Xrotation Yrotation Zrotation
						JOINT neck_2
						{
							OFFSET	0	86.2	-25.8
							CHANNELS 3  Xrotation Yrotation Zrotation
							JOINT head_ee
							{
								OFFSET	0	179.8	-8.7
								CHANNELS 3  Xrotation Yrotation Zrotation
								End Site
								{
									OFFSET	1	0	0
								}
							}
						}
					}
					JOINT left_clavicle
					{
						OFFSET	-43.2	22.4	-70.8
						CHANNELS 3  Xrotation Yrotation Zrotation
						JOINT left_shoulder
						{
							OFFSET	-93.9	-5.79999	48.7
							CHANNELS 3  Xrotation Yrotation Zrotation
							JOINT left_elbow
							{
								OFFSET	-291.4	-30.8	15.2
								CHANNELS 3  Xrotation Yrotation Zrotation
								JOINT left_lowarm_twist
								{
									OFFSET	-110.7	-3.89999	13.6
									CHANNELS 3  Xrotation Yrotation Zrotation
									JOINT left_hand
									{
										OFFSET	-110.7	-3.89999	13.6
										CHANNELS 3  Xrotation Yrotation Zrotation
										JOINT left_ee
										{
											OFFSET	-80.8	-5.10001	12.1
											CHANNELS 3  Xrotation Yrotation Zrotation
											End Site
											{
												OFFSET	1	0	0
											}
										}
									}
								}
							}
						}
					}
					JOINT right_clavicle
					{
						OFFSET	43.2	22.4	-70.8
						CHANNELS 3  Xrotation Yrotation Zrotation
						JOINT right_shoulder
						{
							OFFSET	93.9	-5.79999	48.7
							CHANNELS 3  Xrotation Yrotation Zrotation
							JOINT right_elbow
							{
								OFFSET	291.4	-30.8	15.2
								CHANNELS 3  Xrotation Yrotation Zrotation
								JOINT right_lowarm_twist
								{
									OFFSET	110.7	-3.89999	13.6
									CHANNELS 3  Xrotation Yrotation Zrotation
									JOINT right_hand
									{
										OFFSET	110.7	-3.89999	13.6
										CHANNELS 3  Xrotation Yrotation Zrotation
										JOINT right_ee
										{
											OFFSET	80.8	-5.10001	12.1
											CHANNELS 3  Xrotation Yrotation Zrotation
											End Site
											{
												OFFSET	1	0	0
											}
										}
									}
								}
							}
						}
					}
				}
			}
		}
	}
	JOINT left_hip
	{
		OFFSET	-82.8	-127.5	0.300001
		CHANNELS 3  Xrotation Yrotation Zrotation
		JOINT left_knee
		{
			OFFSET	-28.2	-396.7	2.2
			CHANNELS 3  Xrotation Yrotation Zrotation
			JOINT left_ankle
			{
				OFFSET	-11.7	-411.3	35.4
				CHANNELS 3  Xrotation Yrotation Zrotation
				JOINT left_toes
				{
					OFFSET	0	-60	-88.6
					CHANNELS 3  Xrotation Yrotation Zrotation
					JOINT left_foot_ee
					{
						OFFSET	-22.5	-16.5	-42.2
						CHANNELS 3  Xrotation Yrotation Zrotation
						End Site
						{
							OFFSET	1	0	0
						}
					}
				}
			}
		}
	}
	JOINT right_hip
	{
		OFFSET	82.8	-127.5	0.300001
		CHANNELS 3  Xrotation Yrotation Zrotation
		JOINT right_knee
		{
			OFFSET	28.2	-396.7	2.2
			CHANNELS 3  Xrotation Yrotation Zrotation
			JOINT right_ankle
			{
				OFFSET	11.7	-411.3	35.4
				CHANNELS 3  Xrotation Yrotation Zrotation
				JOINT right_toes
				{
					OFFSET	0	-60	-88.6
					CHANNELS 3  Xrotation Yrotation Zrotation
					JOINT right_foot_ee
					{
						OFFSET	22.5	-16.5	-42.2
						CHANNELS 3  Xrotation Yrotation Zrotation
						End Site
						{
							OFFSET	1	0	0
						}
					}
				}
			}
		}
	}
}
MOTION
Frames: 14
Frame Time: 0.02
816.804307204 615.724 -1825.7533795 -5.46495016143 40.3580732585 12.9496577895 2.16246 -0.633883 -2.33522 2.16537 -0.484045 -2.3708 2.18536 -0.0674163 -2.41874 2.17748 -0.448456 -2.37778 -0.0736138 -6.79057 6.7225 0.362917 -17.5785 6.57456 -0.0 0.0 -0.0 9.94553 -16.3354 19.5087 -20.7314 -12.1094 69.0824 1.15736 -29.8256 0.308237 31.2437 0.0262432 -3.94203 0.160827 8.15721 4.43519 -0.0 0.0 -0.0 3.20476 -14.43 -6.88835 -15.9798 13.6416 -65.1553 0.718006 19.5794 -0.12389 -15.0253 0.764588 -1.757 0.833819 -3.70564 -7.07565 0.0 0.0 0.0 5.96205 -45.1755 -10.6505 -2.11166 0.0811681 0.313884 21.7269 27.1634 -3.13444 40.1546 -0.0 -0.0 -0.0 0.0 -0.0 23.4474 -2.6528 -3.13791 -48.2676 1.07466 -7.11426 40.5185 -4.40929 4.90255 18.2963 -0.0 -0.0 0.0 0.0 0.0 
827.816660819 611.879 -1845.4699875 -5.07210583442 33.26658423 11.9229044444 1.93397 -0.799203 -2.78021 1.93806 -0.620744 -2.82539 1.96893 -0.112793 -2.89052 1.95772 -0.567696 -2.83651 -0.508491 -3.11262 8.47372 -0.133319 -12.4397 8.77074 -0.0 0.0 -0.0 11.0406 -27.5346 21.0273 3.28006 -3.08473 52.729 1.89173 -43.136 0.747823 41.644 -0.437523 -5.18631 0.639401 12.1837 9.0981 -0.0 0.0 -0.0 3.09134 -12.9312 -6.64529 -13.8666 14.1248 -65.8025 0.690815 18.8915 -0.114932 -14.0757 0.702807 -1.65233 1.21026 -1.71529 -8.8007 0.0 0.0 0.0 4.59157 -44.8578 -11.3987 -1.10319 0.0438497 0.163617 26.4154 28.1183 -3.7555 40.1594 -0.0 -0.0 -0.0 0.0 -0.0 26.6977 -1.86153 -2.91028 -45.6332 0.863467 -6.76816 38.4159 -9.38013 4.73072 19.2852 -0.0 -0.0 0.0 0.0 0.0 
826.437574615 615.384 -1856.75498838 -5.21379238613 30.0451107156 11.6583841043 2.00508 -0.384712 -2.78686 2.00938 -0.206669 -2.80567 2.01936 0.289352 -2.79836 2.00847 -0.156048 -2.80894 -0.912422 -2.10435 5.54195 -0.756136 -8.24319 5.66749 -0.0 0.0 -0.0 13.5527 -25.2191 27.0507 3.25572 0.736788 46.2336 2.2429 -48.0052 0.998829 33.1346 -0.0411196 -4.17411 0.556185 9.79634 7.64748 -0.0 0.0 -0.0 3.35276 -14.6574 -7.1363 -14.5423 13.9521 -64.8483 0.750259 20.3879 -0.134913 -13.1995 0.647357 -1.55488 0.820273 -4.50505 -7.30393 0.0 0.0 0.0 4.95312 -40.8275 -10.1644 1.50439 -0.0648664 -0.221731 25.0957 28.7741 -3.60614 40.1497 -0.0 -0.0 -0.0 0.0 -0.0 26.7081 -1.88776 -2.4023 -40.9261 0.526734 -6.12743 35.931 -10.5586 4.50562 18.4479 -0.0 -0.0 0.0 0.0 0.0 
828.691364896 615.384 -1859.49786155 -5.17586902907 29.3132050606 11.5817949061 2.00508 -0.384712 -2.78686 2.00938 -0.206669 -2.80567 2.01936 0.289352 -2.79836 2.00847 -0.156048 -2.80894 -0.912422 -2.10435 5.54195 -0.756136 -8.24319 5.66749 -0.0 0.0 -0.0 13.5527 -25.2191 27.0507 3.25572 0.736788 46.2336 2.2429 -48.0052 0.998829 33.1346 -0.0411196 -4.17411 0.556185 9.79634 7.64748 -0.0 0.0 -0.0 3.35276 -14.6574 -7.1363 -14.5423 13.9521 -64.8483 0.750259 20.3879 -0.134913 -13.1995 0.647357 -1.55488 0.820273 -4.50505 -7.30393 0.0 0.0 0.0 4.95312 -40.8275 -10.1644 1.50439 -0.0648664 -0.221731 25.0957 28.7741 -3.60614 40.1497 -0.0 -0.0 -0.0 0.0 -0.0 26.7081 -1.88776 -2.4023 -40.9261 0.526734 -6.12743 35.931 -10.5586 4.50562 18.4479 -0.0 -0.0 0.0 0.0 0.0 
802.454878978 616.766 -1875.03578944 -4.63647524556 26.9272494989 9.44995586926 1.63086 -0.44113 -2.27572 1.63369 -0.295465 -2.29916 1.64584 0.127927 -2.31453 1.63845 -0.239115 -2.3057 0.760872 -0.190927 3.95391 0.82448 -3.61175 4.27527 -0.0 0.0 -0.0 13.0643 -18.2746 26.5069 6.04036 5.97963 45.7419 3.11604 -57.0511 1.69397 19.5146 0.269949 -2.46618 0.929419 4.04567 7.84733 -0.0 0.0 -0.0 4.11118 -12.4919 -8.33934 -15.5099 18.2114 -64.1122 0.626146 17.2327 -0.094879 -18.0138 0.970244 -2.07957 1.1984 -1.39865 -8.59421 0.0 0.0 0.0 2.05118 -39.6321 -8.32408 4.97261 -0.236474 -0.726026 26.3741 27.6902 -3.73946 40.2265 -0.0 -0.0 -0.0 0.0 -0.0 26.4358 0.0627029 -1.24546 -26.7189 -0.155689 -4.06034 14.9881 -18.7604 2.13177 14.4938 -0.0 -0.0 0.0 0.0 0.0 
805.32458102 616.766 -1878.54243562 -4.6024989098 26.084086993 9.37382669278 1.63086 -0.44113 -2.27572 1.63369 -0.295465 -2.29916 1.64584 0.127927 -2.31453 1.63845 -0.239115 -2.3057 0.760872 -0.190927 3.95391 0.82448 -3.61175 4.27527 -0.0 0.0 -0.0 13.0643 -18.2746 26.5069 6.04036 5.97963 45.7419 3.11604 -57.0511 1.69397 19.5146 0.269949 -2.46618 0.929419 4.04567 7.84733 -0.0 0.0 -0.0 4.11118 -12.4919 -8.33934 -15.5099 18.2114 -64.1122 0.626146 17.2327 -0.094879 -18.0138 0.970244 -2.07957 1.1984 -1.39865 -8.59421 0.0 0.0 0.0 2.05118 -39.6321 -8.32408 4.97261 -0.236474 -0.726026 26.3741 27.6902 -3.73946 40.2265 -0.0 -0.0 -0.0 0.0 -0.0 26.4358 0.0627029 -1.24546 -26.7189 -0.155689 -4.06034 14.9881 -18.7604 2.13177 14.4938 -0.0 -0.0 0.0 0.0 0.0 
754.069500516 617.814 -1916.72392627 -7.83494296261 35.3072901798 11.0602229943 3.35516 -0.431576 -1.72043 3.35675 -0.321243 -1.7444 3.36592 -0.05169 -1.77297 3.36169 -0.331005 -1.74257 1.42207 -1.05036 0.26533 1.42633 -2.07407 0.196604 -0.0 0.0 -0.0 11.861 -19.9412 23.6196 -1.91563 17.6448 57.8725 2.65145 -52.707 1.31369 0.271936 0.00950208 -0.03343 1.16907 -2.60642 6.76626 -0.0 0.0 -0.0 4.15445 -11.1055 -8.38765 -17.2115 24.6157 -67.2577 0.520387 14.4554 -0.0659965 -15.8554 0.820014 -1.84765 1.13887 -1.41076 -8.19847 0.0 0.0 0.0 4.10833 -23.2328 -5.20047 2.73743 -0.122368 -0.402175 30.9487 27.3025 -4.2782 39.5969 -0.0 -0.0 -0.0 0.0 -0.0 22.3594 2.85412 -3.75922 -13.2768 -0.315144 -2.00859 3.06034 -7.34066 0.444449 13.8869 -0.0 -0.0 0.0 0.0 0.0 
754.529551482 617.814 -1917.28696568 -7.82412443513 35.1959736163 11.0414788611 3.35516 -0.431576 -1.72043 3.35675 -0.321243 -1.7444 3.36592 -0.05169 -1.77297 3.36169 -0.331005 -1.74257 1.42207 -1.05036 0.26533 1.42633 -2.07407 0.196604 -0.0 0.0 -0.0 11.861 -19.9412 23.6196 -1.91563 17.6448 57.8725 2.65145 -52.707 1.31369 0.271936 0.00950208 -0.03343 1.16907 -2.60642 6.76626 -0.0 0.0 -0.0 4.15445 -11.1055 -8.38765 -17.2115 24.6157 -67.2577 0.520387 14.4554 -0.0659965 -15.8554 0.820014 -1.84765 1.13887 -1.41076 -8.19847 0.0 0.0 0.0 4.10833 -23.2328 -5.20047 2.73743 -0.122368 -0.402175 30.9487 27.3025 -4.2782 39.5969 -0.0 -0.0 -0.0 0.0 -0.0 22.3594 2.85412 -3.75922 -13.2768 -0.315144 -2.00859 3.06034 -7.34066 0.444449 13.8869 -0.0 -0.0 0.0 0.0 0.0 
743.724106497 620.954 -1909.93531735 -8.32807705457 39.2385729658 11.3962961238 3.41261 -0.35 -1.82856 3.41444 -0.232955 -1.84712 3.4212 0.0494714 -1.86109 3.41645 -0.245023 -1.84556 -0.847659 -1.76934 -0.0998415 -0.841813 -3.09019 -0.312895 -0.0 0.0 -0.0 11.6559 -22.1135 22.9808 -5.91956 18.4601 62.1265 2.34244 -49.2384 1.07352 -1.96011 -0.0731736 0.239592 1.12897 -2.95235 6.35197 -0.0 0.0 -0.0 4.40456 -13.031 -8.83881 -15.6426 26.5734 -66.1249 0.626603 17.2445 -0.0950147 -15.1405 0.772204 -1.76963 0.771405 -0.816559 -5.49266 0.0 0.0 0.0 4.98551 -20.0978 -5.3216 2.10363 -0.0923256 -0.309576 24.4251 28.2373 -3.5073 39.2673 -0.0 -0.0 -0.0 0.0 -0.0 21.6072 3.75554 -3.63481 -12.7752 -0.311748 -1.9317 3.57252 -3.83899 0.519579 14.8251 -0.0 -0.0 0.0 0.0 0.0 
744.649727903 620.954 -1911.1413003 -8.30073303672 39.0085313114 11.3529614342 3.41261 -0.35 -1.82856 3.41444 -0.232955 -1.84712 3.4212 0.0494714 -1.86109 3.41645 -0.245023 -1.84556 -0.847659 -1.76934 -0.0998415 -0.841813 -3.09019 -0.312895 -0.0 0.0 -0.0 11.6559 -22.1135 22.9808 -5.91956 18.4601 62.1265 2.34244 -49.2384 1.07352 -1.96011 -0.0731736 0.239592 1.12897 -2.95235 6.35197 -0.0 0.0 -0.0 4.40456 -13.031 -8.83881 -15.6426 26.5734 -66.1249 0.626603 17.2445 -0.0950147 -15.1405 0.772204 -1.76963 0.771405 -0.816559 -5.49266 0.0 0.0 0.0 4.98551 -20.0978 -5.3216 2.10363 -0.0923256 -0.309576 24.4251 28.2373 -3.5073 39.2673 -0.0 -0.0 -0.0 0.0 -0.0 21.6072 3.75554 -3.63481 -12.7752 -0.311748 -1.9317 3.57252 -3.83899 0.519579 14.8251 -0.0 -0.0 0.0 0.0 0.0 
735.228193835 620.585 -1907.17619949 -7.83364172397 42.1653689767 11.1036598546 3.24896 -0.422128 -1.84622 3.2508 -0.303814 -1.86932 3.26006 -0.0119174 -1.89381 3.25519 -0.310806 -1.86818 -0.458534 -2.79296 0.0544897 -0.441405 -5.03659 -0.253635 -0.0 0.0 -0.0 12.2346 -22.3897 24.283 -7.03174 19.0766 63.4688 1.99107 -44.6004 0.816676 -2.87846 -0.110272 0.350967 1.19675 -4.62691 6.11399 -0.0 0.0 -0.0 4.35983 -14.4484 -8.77484 -15.373 27.2416 -65.1672 0.674274 18.4702 -0.109634 -13.9564 0.695169 -1.63911 1.15287 -0.217065 -7.81156 0.0 0.0 0.0 5.1688 -17.5472 -4.91354 1.80349 -0.0784568 -0.265612 23.7506 28.3366 -3.42303 40.0616 -0.0 -0.0 -0.0 0.0 -0.0 20.6851 3.97125 -3.33827 -13.0806 -0.313896 -1.97852 3.8032 -8.20899 0.551135 13.7655 -0.0 -0.0 0.0 0.0 0.0 
737.095336952 620.585 -1909.6977951 -7.77590701994 41.6964314961 11.0172616386 3.24896 -0.422128 -1.84622 3.2508 -0.303814 -1.86932 3.26006 -0.0119174 -1.89381 3.25519 -0.310806 -1.86818 -0.458534 -2.79296 0.0544897 -0.441405 -5.03659 -0.253635 -0.0 0.0 -0.0 12.2346 -22.3897 24.283 -7.03174 19.0766 63.4688 1.99107 -44.6004 0.816676 -2.87846 -0.110272 0.350967 1.19675 -4.62691 6.11399 -0.0 0.0 -0.0 4.35983 -14.4484 -8.77484 -15.373 27.2416 -65.1672 0.674274 18.4702 -0.109634 -13.9564 0.695169 -1.63911 1.15287 -0.217065 -7.81156 0.0 0.0 0.0 5.1688 -17.5472 -4.91354 1.80349 -0.0784568 -0.265612 23.7506 28.3366 -3.42303 40.0616 -0.0 -0.0 -0.0 0.0 -0.0 20.6851 3.97125 -3.33827 -13.0806 -0.313896 -1.97852 3.8032 -8.20899 0.551135 13.7655 -0.0 -0.0 0.0 0.0 0.0 
740.312898121 620.585 -1913.9433923 -7.6809707132 40.9001160182 10.8734176957 3.24896 -0.422128 -1.84622 3.2508 -0.303814 -1.86932 3.26006 -0.0119174 -1.89381 3.25519 -0.310806 -1.86818 -0.458534 -2.79296 0.0544897 -0.441405 -5.03659 -0.253635 -0.0 0.0 -0.0 12.2346 -22.3897 24.283 -7.03174 19.0766 63.4688 1.99107 -44.6004 0.816676 -2.87846 -0.110272 0.350967 1.19675 -4.62691 6.11399 -0.0 0.0 -0.0 4.35983 -14.4484 -8.77484 -15.373 27.2416 -65.1672 0.674274 18.4702 -0.109634 -13.9564 0.695169 -1.63911 1.15287 -0.217065 -7.81156 0.0 0.0 0.0 5.1688 -17.5472 -4.91354 1.80349 -0.0784568 -0.265612 23.7506 28.3366 -3.42303 40.0616 -0.0 -0.0 -0.0 0.0 -0.0 20.6851 3.97125 -3.33827 -13.0806 -0.313896 -1.97852 3.8032 -8.20899 0.551135 13.7655 -0.0 -0.0 0.0 0.0 0.0 
733.669623541 620.469 -1911.34989627 -7.18488029379 42.9533666703 10.4142418206 3.17956 -0.408807 -1.84097 3.1814 -0.290854 -1.86324 3.19024 0.00225453 -1.88579 3.1854 -0.295547 -1.8625 -1.54408 -3.37776 0.870658 -1.51274 -6.77684 0.496844 -0.0 0.0 -0.0 12.6068 -25.2097 24.8602 -7.68975 19.3767 65.3759 1.64272 -39.134 0.583914 -3.66452 -0.143442 0.445822 1.19576 -5.68367 5.66387 -0.0 0.0 -0.0 4.28864 -15.0591 -8.66234 -14.4095 28.213 -64.3865 0.695068 18.9995 -0.116313 -13.4685 0.664222 -1.58488 1.49644 0.444744 -9.86823 0.0 0.0 0.0 5.05195 -16.9103 -4.64418 1.15058 -0.0490868 -0.169734 19.8133 27.5947 -2.88909 40.1388 -0.0 -0.0 -0.0 0.0 -0.0 19.6919 4.09335 -3.43807 -13.0772 -0.313873 -1.978 4.24656 -12.7386 0.616533 15.6996 -0.0 -0.0 0.0 0.0 0.0 
